<?xml version="1.0" encoding="UTF-8" standalone="no"?>
<!DOCTYPE svg PUBLIC "-//W3C//DTD SVG 1.1//EN"
 "http://www.w3.org/Graphics/SVG/1.1/DTD/svg11.dtd">
<!-- Generated by graphviz version 13.0.1 (20250615.1724)
 -->
<!-- Title: G Pages: 1 -->
<svg width="563pt" height="664pt"
 viewBox="0.00 0.00 563.00 664.00" xmlns="http://www.w3.org/2000/svg" xmlns:xlink="http://www.w3.org/1999/xlink">
<g id="graph0" class="graph" transform="scale(1 1) rotate(0) translate(4 660.13)">
<title>G</title><style>.edge>path:hover{stroke-width:8}</style>
<polygon fill="white" stroke="none" points="-4,4 -4,-660.13 558.62,-660.13 558.62,4 -4,4"/>
<!-- app_py -->
<g id="node1" class="node">
<title>app_py</title><style>.edge>path:hover{stroke-width:8}</style>
<ellipse fill="#995252" stroke="black" cx="421" cy="-18" rx="27" ry="18"/>
<text xml:space="preserve" text-anchor="middle" x="421" y="-14.12" font-family="Helvetica,sans-Serif" font-size="10.00" fill="#ffffff">app.py</text>
</g>
<!-- flask -->
<g id="node2" class="node">
<title>flask</title><style>.edge>path:hover{stroke-width:8}</style>
<polygon fill="blue" stroke="black" points="302,-145 248,-145 248,-109 302,-109 302,-145"/>
<text xml:space="preserve" text-anchor="middle" x="275" y="-123.12" font-family="Helvetica,sans-Serif" font-size="10.00" fill="white">flask</text>
</g>
<!-- flask&#45;&gt;app_py -->
<g id="edge1" class="edge">
<title>flask&#45;&gt;app_py</title><style>.edge>path:hover{stroke-width:8}</style>
<path fill="none" stroke="black" d="M302.49,-121.39C343.22,-113.79 415.43,-97.04 421,-73"/>
<path fill="none" stroke="black" d="M421,-72C422.79,-64.26 423.38,-55.71 423.36,-47.79"/>
<polygon fill="blue" stroke="black" points="426.86,-47.79 423.01,-37.92 419.87,-48.04 426.86,-47.79"/>
</g>
<!-- flask_app -->
<g id="node3" class="node">
<title>flask_app</title><style>.edge>path:hover{stroke-width:8}</style>
<polygon fill="blue" stroke="black" points="227.88,-584.13 172.12,-584.13 172.12,-548.13 227.88,-548.13 227.88,-584.13"/>
<text xml:space="preserve" text-anchor="middle" x="200" y="-562.26" font-family="Helvetica,sans-Serif" font-size="10.00" fill="white">flask.app</text>
</g>
<!-- flask_app&#45;&gt;flask -->
<g id="edge2" class="edge">
<title>flask_app&#45;&gt;flask</title><style>.edge>path:hover{stroke-width:8}</style>
<path fill="none" stroke="black" d="M228.33,-559.01C255.24,-551.89 295.31,-537.69 321,-512.13 347.1,-486.18 400.67,-340.82 416,-272"/>
<path fill="none" stroke="black" d="M416,-270C422.58,-230.93 434.27,-213.07 411,-181 388.53,-150.04 345.27,-137.16 313.55,-131.81"/>
<polygon fill="blue" stroke="black" points="314.35,-128.39 303.95,-130.38 313.32,-135.31 314.35,-128.39"/>
</g>
<!-- flask_ctx -->
<g id="node6" class="node">
<title>flask_ctx</title><style>.edge>path:hover{stroke-width:8}</style>
<polygon fill="blue" stroke="black" points="54,-512.13 0,-512.13 0,-476.13 54,-476.13 54,-512.13"/>
<text xml:space="preserve" text-anchor="middle" x="27" y="-490.26" font-family="Helvetica,sans-Serif" font-size="10.00" fill="white">flask.ctx</text>
</g>
<!-- flask_app&#45;&gt;flask_ctx -->
<g id="edge3" class="edge">
<title>flask_app&#45;&gt;flask_ctx</title><style>.edge>path:hover{stroke-width:8}</style>
<path fill="none" stroke="black" d="M160.97,-549.59C134.67,-539.09 99.21,-524.87 68,-512.13 66.89,-511.68 65.77,-511.22 64.64,-510.76"/>
<polygon fill="blue" stroke="black" points="159.65,-552.84 170.23,-553.29 162.24,-546.34 159.65,-552.84"/>
<polygon fill="blue" stroke="black" points="66.31,-507.66 55.73,-507.09 63.64,-514.13 66.31,-507.66"/>
</g>
<!-- flask_globals -->
<g id="node7" class="node">
<title>flask_globals</title><style>.edge>path:hover{stroke-width:8}</style>
<polygon fill="blue" stroke="black" points="163.38,-440.13 92.62,-440.13 92.62,-404.13 163.38,-404.13 163.38,-440.13"/>
<text xml:space="preserve" text-anchor="middle" x="128" y="-418.26" font-family="Helvetica,sans-Serif" font-size="10.00" fill="white">flask.globals</text>
</g>
<!-- flask_app&#45;&gt;flask_globals -->
<g id="edge4" class="edge">
<title>flask_app&#45;&gt;flask_globals</title><style>.edge>path:hover{stroke-width:8}</style>
<path fill="none" stroke="black" d="M185.99,-537.5C173.26,-512.39 154.57,-475.54 141.88,-450.51"/>
<polygon fill="blue" stroke="black" points="182.84,-539.04 190.49,-546.37 189.09,-535.87 182.84,-539.04"/>
<polygon fill="blue" stroke="black" points="145,-448.93 137.36,-441.59 138.76,-452.1 145,-448.93"/>
</g>
<!-- flask_templating -->
<g id="node11" class="node">
<title>flask_templating</title><style>.edge>path:hover{stroke-width:8}</style>
<polygon fill="blue" stroke="black" points="305.5,-217 244.5,-217 244.5,-181 305.5,-181 305.5,-217"/>
<text xml:space="preserve" text-anchor="middle" x="275" y="-200.75" font-family="Helvetica,sans-Serif" font-size="10.00" fill="white">flask.</text>
<text xml:space="preserve" text-anchor="middle" x="275" y="-189.5" font-family="Helvetica,sans-Serif" font-size="10.00" fill="white">templating</text>
</g>
<!-- flask_app&#45;&gt;flask_templating -->
<g id="edge5" class="edge">
<title>flask_app&#45;&gt;flask_templating</title><style>.edge>path:hover{stroke-width:8}</style>
<path fill="none" stroke="black" d="M238.42,-546.86C279.86,-524.16 340,-481.22 340,-423.13 340,-423.13 340,-423.13 340,-345.57 340,-300.75 314,-254.4 294.89,-226.38"/>
<polygon fill="blue" stroke="black" points="236.87,-543.72 229.67,-551.48 240.15,-549.91 236.87,-543.72"/>
<polygon fill="blue" stroke="black" points="297.96,-224.66 289.34,-218.5 292.24,-228.69 297.96,-224.66"/>
</g>
<!-- flask_blueprints -->
<g id="node4" class="node">
<title>flask_blueprints</title><style>.edge>path:hover{stroke-width:8}</style>
<polygon fill="blue" stroke="black" points="188,-217 130,-217 130,-181 188,-181 188,-217"/>
<text xml:space="preserve" text-anchor="middle" x="159" y="-200.75" font-family="Helvetica,sans-Serif" font-size="10.00" fill="white">flask.</text>
<text xml:space="preserve" text-anchor="middle" x="159" y="-189.5" font-family="Helvetica,sans-Serif" font-size="10.00" fill="white">blueprints</text>
</g>
<!-- flask_blueprints&#45;&gt;flask -->
<g id="edge6" class="edge">
<title>flask_blueprints&#45;&gt;flask</title><style>.edge>path:hover{stroke-width:8}</style>
<path fill="none" stroke="black" d="M187.97,-180.52C203.09,-171.4 221.75,-160.13 237.91,-150.38"/>
<polygon fill="blue" stroke="black" points="239.54,-153.48 246.3,-145.32 235.93,-147.49 239.54,-153.48"/>
</g>
<!-- flask_config -->
<g id="node5" class="node">
<title>flask_config</title><style>.edge>path:hover{stroke-width:8}</style>
<ellipse fill="#85b653" stroke="black" cx="363" cy="-199" rx="39.2" ry="18"/>
<text xml:space="preserve" text-anchor="middle" x="363" y="-195.12" font-family="Helvetica,sans-Serif" font-size="10.00" fill="#000000">flask.config</text>
</g>
<!-- flask_config&#45;&gt;flask -->
<g id="edge7" class="edge">
<title>flask_config&#45;&gt;flask</title><style>.edge>path:hover{stroke-width:8}</style>
<path fill="none" stroke="black" d="M343.91,-182.81C332.76,-173.95 318.44,-162.55 305.74,-152.45"/>
<polygon fill="#85b653" stroke="black" points="308.04,-149.81 298.03,-146.32 303.68,-155.28 308.04,-149.81"/>
</g>
<!-- flask_ctx&#45;&gt;flask -->
<g id="edge8" class="edge">
<title>flask_ctx&#45;&gt;flask</title><style>.edge>path:hover{stroke-width:8}</style>
<path fill="none" stroke="black" d="M31.61,-475.79C41.02,-440.02 61.45,-360.28 60,-347.57"/>
<path fill="none" stroke="black" d="M60,-345.57C54.5,-313.34 66.86,-303.97 60,-272"/>
<path fill="none" stroke="black" d="M60,-270C53.47,-239.58 46.88,-228.21 60,-200"/>
<path fill="none" stroke="black" d="M60,-198C75.18,-165.37 178.92,-143.57 236.57,-133.83"/>
<polygon fill="blue" stroke="black" points="236.98,-137.3 246.29,-132.23 235.85,-130.4 236.98,-137.3"/>
</g>
<!-- flask_ctx&#45;&gt;flask_globals -->
<g id="edge10" class="edge">
<title>flask_ctx&#45;&gt;flask_globals</title><style>.edge>path:hover{stroke-width:8}</style>
<path fill="none" stroke="black" d="M61.37,-469.32C71.85,-462.05 83.37,-454.07 93.84,-446.81"/>
<polygon fill="blue" stroke="black" points="59.7,-466.21 53.47,-474.79 63.68,-471.97 59.7,-466.21"/>
<polygon fill="blue" stroke="black" points="95.63,-449.83 101.85,-441.26 91.64,-444.08 95.63,-449.83"/>
</g>
<!-- flask_globals&#45;&gt;flask -->
<g id="edge11" class="edge">
<title>flask_globals&#45;&gt;flask</title><style>.edge>path:hover{stroke-width:8}</style>
<path fill="none" stroke="black" d="M99.71,-403.85C82.27,-390.93 62.73,-371.41 60,-347.57"/>
</g>
<!-- flask_globals&#45;&gt;flask_blueprints -->
<g id="edge13" class="edge">
<title>flask_globals&#45;&gt;flask_blueprints</title><style>.edge>path:hover{stroke-width:8}</style>
<path fill="none" stroke="black" d="M196,-345.57C210.64,-314.74 174.82,-306.12 174,-272"/>
</g>
<!-- flask_helpers -->
<g id="node8" class="node">
<title>flask_helpers</title><style>.edge>path:hover{stroke-width:8}</style>
<polygon fill="blue" stroke="black" points="273.75,-289 202.25,-289 202.25,-253 273.75,-253 273.75,-289"/>
<text xml:space="preserve" text-anchor="middle" x="238" y="-267.12" font-family="Helvetica,sans-Serif" font-size="10.00" fill="white">flask.helpers</text>
</g>
<!-- flask_globals&#45;&gt;flask_helpers -->
<g id="edge15" class="edge">
<title>flask_globals&#45;&gt;flask_helpers</title><style>.edge>path:hover{stroke-width:8}</style>
<path fill="none" stroke="black" d="M196,-345.57C203.49,-329.79 213.07,-312.83 221.19,-299.17"/>
<polygon fill="blue" stroke="black" points="224.1,-301.11 226.27,-290.74 218.11,-297.49 224.1,-301.11"/>
</g>
<!-- flask_json -->
<g id="node9" class="node">
<title>flask_json</title><style>.edge>path:hover{stroke-width:8}</style>
<polygon fill="blue" stroke="black" points="146,-289 88,-289 88,-253 146,-253 146,-289"/>
<text xml:space="preserve" text-anchor="middle" x="117" y="-267.12" font-family="Helvetica,sans-Serif" font-size="10.00" fill="white">flask.json</text>
</g>
<!-- flask_globals&#45;&gt;flask_json -->
<g id="edge16" class="edge">
<title>flask_globals&#45;&gt;flask_json</title><style>.edge>path:hover{stroke-width:8}</style>
<path fill="none" stroke="black" d="M196,-345.57C207.45,-321.46 181.73,-301.42 156.64,-288.37"/>
<polygon fill="blue" stroke="black" points="158.28,-285.28 147.76,-284.04 155.22,-291.57 158.28,-285.28"/>
<path fill="none" stroke="black" d="M149.81,-403.92C165.36,-390.35 185.33,-370.03 196,-347.57"/>
</g>
<!-- flask_globals&#45;&gt;flask_templating -->
<g id="edge17" class="edge">
<title>flask_globals&#45;&gt;flask_templating</title><style>.edge>path:hover{stroke-width:8}</style>
<path fill="none" stroke="black" d="M196,-345.57C215.79,-303.91 261,-329.54 283,-289 293.06,-270.46 290.18,-246.5 285.26,-228.11"/>
<polygon fill="blue" stroke="black" points="288.64,-227.21 282.38,-218.66 281.95,-229.25 288.64,-227.21"/>
</g>
<!-- flask_wrappers -->
<g id="node12" class="node">
<title>flask_wrappers</title><style>.edge>path:hover{stroke-width:8}</style>
<polygon fill="blue" stroke="black" points="167.88,-364.57 88.12,-364.57 88.12,-328.57 167.88,-328.57 167.88,-364.57"/>
<text xml:space="preserve" text-anchor="middle" x="128" y="-342.69" font-family="Helvetica,sans-Serif" font-size="10.00" fill="white">flask.wrappers</text>
</g>
<!-- flask_globals&#45;&gt;flask_wrappers -->
<g id="edge18" class="edge">
<title>flask_globals&#45;&gt;flask_wrappers</title><style>.edge>path:hover{stroke-width:8}</style>
<path fill="none" stroke="black" d="M128,-392.48C128,-387.09 128,-381.46 128,-376.07"/>
<polygon fill="blue" stroke="black" points="124.5,-392.19 128,-402.19 131.5,-392.19 124.5,-392.19"/>
<polygon fill="blue" stroke="black" points="131.5,-376.39 128,-366.39 124.5,-376.39 131.5,-376.39"/>
</g>
<!-- flask_helpers&#45;&gt;flask -->
<g id="edge19" class="edge">
<title>flask_helpers&#45;&gt;flask</title><style>.edge>path:hover{stroke-width:8}</style>
<path fill="none" stroke="black" d="M234.29,-252.77C231.1,-234.47 228.14,-204.94 236,-181 239.12,-171.48 244.68,-162.27 250.64,-154.26"/>
<polygon fill="blue" stroke="black" points="253.22,-156.64 256.76,-146.66 247.76,-152.26 253.22,-156.64"/>
</g>
<!-- flask_helpers&#45;&gt;flask_app -->
<g id="edge20" class="edge">
<title>flask_helpers&#45;&gt;flask_app</title><style>.edge>path:hover{stroke-width:8}</style>
<path fill="none" stroke="black" d="M235.75,-289.37C229.44,-338.03 211.54,-476.09 203.73,-536.38"/>
<polygon fill="blue" stroke="black" points="200.27,-535.81 202.46,-546.17 207.21,-536.71 200.27,-535.81"/>
</g>
<!-- flask_helpers&#45;&gt;flask_blueprints -->
<g id="edge21" class="edge">
<title>flask_helpers&#45;&gt;flask_blueprints</title><style>.edge>path:hover{stroke-width:8}</style>
<path fill="none" stroke="black" d="M218.47,-252.7C208.98,-244.28 197.39,-234.02 186.98,-224.79"/>
<polygon fill="blue" stroke="black" points="189.52,-222.36 179.71,-218.35 184.87,-227.6 189.52,-222.36"/>
</g>
<!-- flask_helpers&#45;&gt;flask_templating -->
<g id="edge22" class="edge">
<title>flask_helpers&#45;&gt;flask_templating</title><style>.edge>path:hover{stroke-width:8}</style>
<path fill="none" stroke="black" d="M247.15,-252.7C251.22,-244.98 256.12,-235.71 260.67,-227.11"/>
<polygon fill="blue" stroke="black" points="263.67,-228.92 265.25,-218.44 257.48,-225.65 263.67,-228.92"/>
</g>
<!-- flask_json&#45;&gt;flask -->
<g id="edge24" class="edge">
<title>flask_json&#45;&gt;flask</title><style>.edge>path:hover{stroke-width:8}</style>
<path fill="none" stroke="black" d="M87.57,-252.72C69.18,-239.51 50.61,-220.18 60,-200"/>
</g>
<!-- flask_signals -->
<g id="node10" class="node">
<title>flask_signals</title><style>.edge>path:hover{stroke-width:8}</style>
<ellipse fill="#85e722" stroke="black" cx="200" cy="-638.13" rx="41.86" ry="18"/>
<text xml:space="preserve" text-anchor="middle" x="200" y="-634.26" font-family="Helvetica,sans-Serif" font-size="10.00" fill="#000000">flask.signals</text>
</g>
<!-- flask_signals&#45;&gt;flask -->
<g id="edge26" class="edge">
<title>flask_signals&#45;&gt;flask</title><style>.edge>path:hover{stroke-width:8}</style>
<path fill="none" stroke="black" d="M416,-345.57C411.81,-313.14 413.26,-304.58 416,-272"/>
</g>
<!-- flask_signals&#45;&gt;flask_app -->
<g id="edge27" class="edge">
<title>flask_signals&#45;&gt;flask_app</title><style>.edge>path:hover{stroke-width:8}</style>
<path fill="none" stroke="black" d="M200,-619.83C200,-612.54 200,-603.86 200,-595.67"/>
<polygon fill="#85e722" stroke="black" points="203.5,-595.75 200,-585.75 196.5,-595.75 203.5,-595.75"/>
</g>
<!-- flask_signals&#45;&gt;flask_ctx -->
<g id="edge28" class="edge">
<title>flask_signals&#45;&gt;flask_ctx</title><style>.edge>path:hover{stroke-width:8}</style>
<path fill="none" stroke="black" d="M181.16,-621.67C151.21,-597.08 92.48,-548.88 56.79,-519.58"/>
<polygon fill="#85e722" stroke="black" points="59.36,-517.17 49.41,-513.53 54.92,-522.58 59.36,-517.17"/>
</g>
<!-- flask_signals&#45;&gt;flask_helpers -->
<g id="edge29" class="edge">
<title>flask_signals&#45;&gt;flask_helpers</title><style>.edge>path:hover{stroke-width:8}</style>
<path fill="none" stroke="black" d="M230.79,-625.47C298.08,-597.92 449.61,-523.5 416,-423.13"/>
<path fill="none" stroke="black" d="M416,-421.13C398.17,-357.82 330.76,-314.63 284.22,-291.63"/>
<polygon fill="#85e722" stroke="black" points="285.94,-288.58 275.41,-287.42 282.92,-294.89 285.94,-288.58"/>
</g>
<!-- flask_signals&#45;&gt;flask_templating -->
<g id="edge30" class="edge">
<title>flask_signals&#45;&gt;flask_templating</title><style>.edge>path:hover{stroke-width:8}</style>
<path fill="none" stroke="black" d="M416,-421.13C412.18,-388.66 420.02,-380.02 416,-347.57"/>
<path fill="none" stroke="black" d="M416,-345.57C409.02,-289.19 354.77,-246.03 315.64,-221.83"/>
<polygon fill="#85e722" stroke="black" points="317.48,-218.86 307.11,-216.73 313.89,-224.87 317.48,-218.86"/>
</g>
<!-- flask_templating&#45;&gt;flask -->
<g id="edge31" class="edge">
<title>flask_templating&#45;&gt;flask</title><style>.edge>path:hover{stroke-width:8}</style>
<path fill="none" stroke="black" d="M275,-180.7C275,-173.41 275,-164.73 275,-156.54"/>
<polygon fill="blue" stroke="black" points="278.5,-156.62 275,-146.62 271.5,-156.62 278.5,-156.62"/>
</g>
<!-- flask_wrappers&#45;&gt;flask -->
<g id="edge33" class="edge">
<title>flask_wrappers&#45;&gt;flask</title><style>.edge>path:hover{stroke-width:8}</style>
<path fill="none" stroke="black" d="M101.55,-328.33C84.68,-315.29 65.07,-295.64 60,-272"/>
</g>
<!-- flask_wrappers&#45;&gt;flask_app -->
<g id="edge34" class="edge">
<title>flask_wrappers&#45;&gt;flask_app</title><style>.edge>path:hover{stroke-width:8}</style>
<path fill="none" stroke="black" d="M65,-423.13C38.79,-481.84 124.86,-531.26 171.71,-553.11"/>
</g>
<!-- flask_wrappers&#45;&gt;flask_blueprints -->
<g id="edge35" class="edge">
<title>flask_wrappers&#45;&gt;flask_blueprints</title><style>.edge>path:hover{stroke-width:8}</style>
<path fill="none" stroke="black" d="M147.01,-328.1C159.9,-314.25 174.52,-293.68 174,-272"/>
<path fill="none" stroke="black" d="M174,-270C173.66,-256.02 170.73,-240.8 167.54,-228.13"/>
<polygon fill="blue" stroke="black" points="171,-227.53 165,-218.79 164.24,-229.36 171,-227.53"/>
</g>
<!-- flask_wrappers&#45;&gt;flask_ctx -->
<g id="edge36" class="edge">
<title>flask_wrappers&#45;&gt;flask_ctx</title><style>.edge>path:hover{stroke-width:8}</style>
<path fill="none" stroke="black" d="M65,-423.13C56.77,-441.57 45.57,-461.74 37.46,-475.68"/>
<path fill="none" stroke="black" d="M108.04,-364.79C95.83,-376.37 80.61,-392.78 70.22,-410.91"/>
<polygon fill="blue" stroke="black" points="67.12,-409.29 65.69,-419.79 73.35,-412.47 67.12,-409.29"/>
</g>
<!-- flask_wrappers&#45;&gt;flask_helpers -->
<g id="edge38" class="edge">
<title>flask_wrappers&#45;&gt;flask_helpers</title><style>.edge>path:hover{stroke-width:8}</style>
<path fill="none" stroke="black" d="M163.54,-321.8C176.14,-313.37 190.31,-303.9 202.87,-295.49"/>
<polygon fill="blue" stroke="black" points="161.69,-318.82 155.33,-327.29 165.58,-324.64 161.69,-318.82"/>
<polygon fill="blue" stroke="black" points="204.49,-298.62 210.86,-290.15 200.6,-292.8 204.49,-298.62"/>
</g>
<!-- flask_wrappers&#45;&gt;flask_json -->
<g id="edge39" class="edge">
<title>flask_wrappers&#45;&gt;flask_json</title><style>.edge>path:hover{stroke-width:8}</style>
<path fill="none" stroke="black" d="M123.72,-316.91C122.91,-311.52 122.07,-305.89 121.26,-300.5"/>
<polygon fill="blue" stroke="black" points="120.23,-317.26 125.17,-326.64 127.15,-316.23 120.23,-317.26"/>
<polygon fill="blue" stroke="black" points="124.75,-300.18 119.81,-290.81 117.83,-301.21 124.75,-300.18"/>
</g>
<!-- psycopg2 -->
<g id="node13" class="node">
<title>psycopg2</title><style>.edge>path:hover{stroke-width:8}</style>
<polygon fill="blue" stroke="black" points="516,-217 458,-217 458,-181 516,-181 516,-217"/>
<text xml:space="preserve" text-anchor="middle" x="487" y="-195.12" font-family="Helvetica,sans-Serif" font-size="10.00" fill="white">psycopg2</text>
</g>
<!-- psycopg2&#45;&gt;app_py -->
<g id="edge40" class="edge">
<title>psycopg2&#45;&gt;app_py</title><style>.edge>path:hover{stroke-width:8}</style>
<path fill="none" stroke="black" d="M468.06,-180.55C445.32,-157.4 411.37,-114.6 421,-73"/>
</g>
<!-- query_data -->
<g id="node16" class="node">
<title>query_data</title><style>.edge>path:hover{stroke-width:8}</style>
<ellipse fill="#7f4cb3" stroke="black" cx="487" cy="-127" rx="37.87" ry="18"/>
<text xml:space="preserve" text-anchor="middle" x="487" y="-123.12" font-family="Helvetica,sans-Serif" font-size="10.00" fill="#ffffff">query_data</text>
</g>
<!-- psycopg2&#45;&gt;query_data -->
<g id="edge41" class="edge">
<title>psycopg2&#45;&gt;query_data</title><style>.edge>path:hover{stroke-width:8}</style>
<path fill="none" stroke="black" d="M487,-180.7C487,-173.41 487,-164.73 487,-156.54"/>
<polygon fill="blue" stroke="black" points="490.5,-156.62 487,-146.62 483.5,-156.62 490.5,-156.62"/>
</g>
<!-- psycopg2__psycopg -->
<g id="node14" class="node">
<title>psycopg2__psycopg</title><style>.edge>path:hover{stroke-width:8}</style>
<ellipse fill="#47c2c2" stroke="black" cx="500" cy="-346.57" rx="43.13" ry="21.57"/>
<text xml:space="preserve" text-anchor="middle" x="500" y="-348.32" font-family="Helvetica,sans-Serif" font-size="10.00" fill="#000000">psycopg2.</text>
<text xml:space="preserve" text-anchor="middle" x="500" y="-337.07" font-family="Helvetica,sans-Serif" font-size="10.00" fill="#000000">_psycopg</text>
</g>
<!-- psycopg2__psycopg&#45;&gt;psycopg2 -->
<g id="edge42" class="edge">
<title>psycopg2__psycopg&#45;&gt;psycopg2</title><style>.edge>path:hover{stroke-width:8}</style>
<path fill="none" stroke="black" d="M491.76,-324.98C487.97,-314.41 483.9,-301.22 482,-289 478.87,-268.87 480.28,-245.91 482.39,-228.36"/>
<polygon fill="#47c2c2" stroke="black" points="485.83,-229.05 483.71,-218.67 478.9,-228.1 485.83,-229.05"/>
</g>
<!-- psycopg2_extensions -->
<g id="node15" class="node">
<title>psycopg2_extensions</title><style>.edge>path:hover{stroke-width:8}</style>
<polygon fill="blue" stroke="black" points="554.62,-289 491.38,-289 491.38,-253 554.62,-253 554.62,-289"/>
<text xml:space="preserve" text-anchor="middle" x="523" y="-272.75" font-family="Helvetica,sans-Serif" font-size="10.00" fill="white">psycopg2.</text>
<text xml:space="preserve" text-anchor="middle" x="523" y="-261.5" font-family="Helvetica,sans-Serif" font-size="10.00" fill="white">extensions</text>
</g>
<!-- psycopg2__psycopg&#45;&gt;psycopg2_extensions -->
<g id="edge43" class="edge">
<title>psycopg2__psycopg&#45;&gt;psycopg2_extensions</title><style>.edge>path:hover{stroke-width:8}</style>
<path fill="none" stroke="black" d="M506.41,-325.07C508.82,-317.36 511.61,-308.44 514.2,-300.15"/>
<polygon fill="#47c2c2" stroke="black" points="517.47,-301.43 517.11,-290.84 510.79,-299.34 517.47,-301.43"/>
</g>
<!-- psycopg2_extensions&#45;&gt;psycopg2 -->
<g id="edge44" class="edge">
<title>psycopg2_extensions&#45;&gt;psycopg2</title><style>.edge>path:hover{stroke-width:8}</style>
<path fill="none" stroke="black" d="M514.1,-252.7C510.13,-244.98 505.37,-235.71 500.94,-227.11"/>
<polygon fill="blue" stroke="black" points="504.17,-225.74 496.49,-218.45 497.95,-228.94 504.17,-225.74"/>
</g>
<!-- query_data&#45;&gt;app_py -->
<g id="edge45" class="edge">
<title>query_data&#45;&gt;app_py</title><style>.edge>path:hover{stroke-width:8}</style>
<path fill="none" stroke="black" d="M456.59,-115.92C437.11,-107.41 416.29,-93.33 421,-73"/>
</g>
</g>
</svg>
